<?xml version="1.0" encoding="UTF-8"?>
<svg fill="none" viewBox="0 0 517 313" xmlns="http://www.w3.org/2000/svg">
<g clip-path="url(#z)">
<path d="m301.6 169.13 2.89-2.304 121.78 69.875-2.312 2.634-122.35-70.205z" fill="#0078D4"/>
<path d="m247.93 200.41 2.889-2.305 121.78 69.876-2.311 2.634-122.35-70.205z" fill="#0078D4"/>
<path d="m346.92 133 2.889-2.304 121.78 69.875-2.311 2.634-122.35-70.205z" fill="#0078D4"/>
<path d="m327.93 31.357 14.2-6.502c1.652-0.9876 3.798-1.1522 6.192-0.3292l-14.2 6.502c-2.394-0.8231-4.541-0.6585-6.192 0.3292z" fill="#84ECFD"/>
<path d="m362.86 10.452c10.237 5.9258 19.154 17.119 24.272 29.218 1.404 0.4115 2.89 1.0699 4.459 1.9752 10.567 6.0905 19.154 20.905 19.154 33.004l3.55 2.0576c6.852 3.9506 12.466 13.58 12.466 21.564v0.7407c0 7.9013-5.614 11.111-12.549 7.1603l-77.441-44.526c-6.853-3.9506-12.467-13.58-12.467-21.481v-0.7407c0-6.9135 4.211-10.206 9.825-8.3127-0.083-1.3991-0.165-2.7983-0.165-4.1152 0.082-18.354 12.962-25.679 28.896-16.543z" fill="#2195DC"/>
<path d="m344.61 7.407c-0.743 0.24691-1.569 0.65843-2.229 1.07l2.229-1.07z" fill="#32B0E7"/>
<path d="m428.49 70.205-3.55-2.0576-2.724 1.2345 2.724-1.2345c0-12.099-8.503-26.913-19.154-33.004-1.568-0.9053-3.054-1.5637-4.458-1.9753-5.119-12.099-14.035-23.374-24.273-29.218-8.008-4.609-15.273-5.0205-20.474-1.9753l-11.972 5.432c4.954-1.8107 11.311-0.98764 18.246 3.0452 10.238 5.9258 19.154 17.119 24.273 29.218 1.403 0.4115 2.889 1.07 4.458 1.9753 10.568 6.0904 19.154 20.905 19.154 33.004l3.55 2.0576c6.852 3.9505 12.466 13.58 12.466 21.564v0.7407c0 3.9502-1.403 6.6662-3.632 7.9832l14.2-6.502c2.229-1.3166 3.633-4.0326 3.633-7.9832v-0.7407c0-7.9835-5.614-17.613-12.467-21.564z" fill="#32B0E7"/>
<path d="m8.8389 189.13 224.32-129.22 216.97 123.95-224.32 129.22-216.97-123.95z" fill="url(#y)" opacity=".5"/>
<path d="m228.2 42.634 226.3 130.2-14.53 8.313-213.17 122.8-211.77-121.89-14.531-8.395 227.7-131.03z" fill="#505055" opacity=".2"/>
<path d="m0.5 173.66v3.128l226.3 130.2 227.7-131.03v-3.622l-226.3-113-227.62 113.83-0.08256 0.494z" fill="#505055"/>
<path d="m0.5 173.25 227.7-131.11 226.3 130.2-227.7 131.11-226.3-130.2z" fill="#505055"/>
<path d="m228.61 267.82-1.073 0.576-180.31-103.46 0.9907-0.576 180.39 103.46z" fill="#78787D"/>
<path d="m248.43 256.38-1.073 0.494-179.65-102.96 1.0733-0.576 179.65 103.04z" fill="#78787D"/>
<path d="m268.16 244.94-0.99 0.494-179.65-102.96 1.0732-0.576 179.57 103.04z" fill="#78787D"/>
<path d="m287.97 233.41-1.073 0.576-179.57-103.04 0.991-0.493 179.65 102.96z" fill="#78787D"/>
<path d="m307.79 221.97-1.074 0.576-179.65-103.04 1.073-0.576 179.65 103.04z" fill="#78787D"/>
<path d="m327.6 210.53-1.073 0.494-179.65-102.96 1.074-0.576 179.65 103.04z" fill="#78787D"/>
<path d="m347.34 199.09-0.991 0.494-179.65-103.04 1.074-0.4938 179.57 103.04z" fill="#78787D"/>
<path d="m367.15 187.57-1.074 0.576-179.57-103.04 0.991-0.4938 179.65 102.96z" fill="#78787D"/>
<path d="m386.96 176.13-1.073 0.576-179.65-103.04 1.074-0.5761 179.65 103.04z" fill="#78787D"/>
<path d="m406.78 164.69-1.073 0.494-179.65-102.96 1.073-0.5761 179.65 103.04z" fill="#78787D"/>
<path d="m218.71 274.07 0.991 0.576 5.366-3.128-0.99-0.576-5.367 3.128z" fill="#BCBCBC"/>
<path d="m198.81 262.71 0.99 0.576 5.449-3.128-0.99-0.576-5.449 3.128z" fill="#BCBCBC"/>
<path d="m178.91 251.27 0.991 0.576 5.366-3.127-0.991-0.576-5.366 3.127z" fill="#BCBCBC"/>
<path d="m158.93 239.91 0.99 0.576 5.449-3.127-0.99-0.576-5.449 3.127z" fill="#BCBCBC"/>
<path d="m139.12 228.47 0.991 0.576 5.366-3.128-0.99-0.576-5.367 3.128z" fill="#BCBCBC"/>
<path d="m119.14 217.12 0.99 0.576 5.449-3.127-0.99-0.576-5.449 3.127z" fill="#BCBCBC"/>
<path d="m99.242 205.68 0.9903 0.576 5.449-3.128-0.99-0.576-5.4493 3.128z" fill="#BCBCBC"/>
<path d="m79.344 194.32 0.9908 0.576 5.4489-3.127-0.9907-0.577-5.449 3.128z" fill="#505055"/>
<path d="m59.448 182.88 0.9907 0.576 5.4489-3.127-0.9907-0.577-5.4489 3.128z" fill="#BCBCBC"/>
<path d="m39.55 171.52 0.9907 0.576 5.4489-3.127-0.9907-0.576-5.4489 3.127z" fill="#505055"/>
<path d="m49.624 173.74 0.3303 0.164 2.3942-1.316-0.3302-0.165-2.3943 1.317z" fill="#BCBCBC"/>
<path d="m56.146 177.45 0.3302 0.247 2.3943-1.399-0.3303-0.165-2.3942 1.317z" fill="#BCBCBC"/>
<path d="m69.52 185.18 0.3303 0.165 2.3942-1.317-0.3302-0.247-2.3943 1.399z" fill="#BCBCBC"/>
<path d="m76.042 188.89 0.3302 0.165 2.3943-1.317-0.3303-0.247-2.3942 1.399z" fill="#505055"/>
<path d="m89.5 196.54 0.3302 0.247 2.3943-1.399-0.3303-0.165-2.3942 1.317z" fill="#505055"/>
<path d="m96.022 200.33 0.3302 0.165 2.3117-1.317-0.3303-0.247-2.3116 1.399z" fill="#505055"/>
<path d="m109.31 207.98 0.33 0.165 2.394-1.317-0.33-0.247-2.394 1.399z" fill="#BCBCBC"/>
<path d="m115.84 211.68 0.331 0.164 2.394-1.316-0.33-0.247-2.395 1.399z" fill="#BCBCBC"/>
<path d="m129.29 219.34 0.331 0.165 2.311-1.317-0.33-0.165-2.312 1.317z" fill="#BCBCBC"/>
<path d="m135.82 223.04 0.33 0.247 2.312-1.4-0.33-0.164-2.312 1.317z" fill="#BCBCBC"/>
<path d="m149.11 230.7 0.33 0.247 2.394-1.399-0.33-0.165-2.394 1.317z" fill="#BCBCBC"/>
<path d="m155.63 234.48 0.33 0.165 2.394-1.317-0.33-0.247-2.394 1.399z" fill="#BCBCBC"/>
<path d="m169.09 242.14 0.33 0.165 2.312-1.317-0.33-0.165-2.312 1.317z" fill="#BCBCBC"/>
<path d="m175.61 245.84 0.33 0.247 2.312-1.399-0.33-0.165-2.312 1.317z" fill="#BCBCBC"/>
<path d="m188.98 253.58 0.33 0.164 2.394-1.317-0.33-0.247-2.394 1.4z" fill="#BCBCBC"/>
<path d="m195.51 257.28 0.331 0.164 2.311-1.316-0.33-0.165-2.312 1.317z" fill="#BCBCBC"/>
<path d="m208.8 264.93 0.331 0.165 2.394-1.317-0.33-0.247-2.395 1.399z" fill="#BCBCBC"/>
<path d="m215.32 268.64 0.331 0.164 2.394-1.317-0.413-0.164-2.312 1.317z" fill="#BCBCBC"/>
<path d="m226.38 267.49 1.074 0.576 178.49-102.3-1.073-0.576-178.5 102.3z" fill="#78787D"/>
<path d="m206.65 256.05 0.991 0.493 178.49-102.3-0.991-0.494-178.49 102.3z" fill="#78787D"/>
<path d="m186.84 244.6 1.073 0.494 178.41-102.3-0.99-0.494-178.5 102.3z" fill="#78787D"/>
<path d="m167.02 233.08 1.074 0.576 178.5-102.3-1.074-0.576-178.5 102.3z" fill="#78787D"/>
<path d="m147.21 221.64 1.074 0.577 178.49-102.3-1.073-0.576-178.5 102.3z" fill="#78787D"/>
<path d="m127.48 210.2 0.991 0.494 178.5-102.3-0.991-0.494-178.5 102.3z" fill="#78787D"/>
<path d="m107.66 198.76 1.073 0.494 178.49-102.3-1.073-0.5761-178.49 102.38z" fill="#78787D"/>
<path d="m87.848 187.24 1.0733 0.576 178.49-102.3-1.073-0.5761-178.49 102.3z" fill="#78787D"/>
<path d="m68.034 175.8 1.0733 0.576 178.49-102.3-1.073-0.5761-178.49 102.3z" fill="#78787D"/>
<path d="m48.055 164.44 0.9907 0.658 178.74-102.55-0.991-0.4939-178.74 102.39z" fill="#78787D"/>
<path d="m348.66 251.85c1.982 1.152 1.982 3.045 0 4.197-1.981 1.152-5.201 1.152-7.183 0-1.981-1.152-1.981-3.045 0-4.197 1.982-1.153 5.202-1.153 7.183 0z" fill="#0078D4"/>
<path d="m347.34 252.59c1.238 0.741 1.238 1.893 0 2.552-1.239 0.74-3.22 0.74-4.458 0-1.239-0.741-1.239-1.893 0-2.552 1.238-0.658 3.219-0.658 4.458 0z" fill="#F4F4F4"/>
<path d="m401.49 220.24c1.981 1.152 1.981 3.045 0 4.197-1.982 1.153-5.202 1.153-7.183 0-1.982-1.152-1.982-3.045 0-4.197 1.981-1.152 5.201-1.152 7.183 0z" fill="#0078D4"/>
<path d="m400.09 221.07c1.239 0.741 1.239 1.893 0 2.551-1.238 0.741-3.22 0.741-4.458 0-1.238-0.74-1.238-1.893 0-2.551 1.238-0.741 3.22-0.741 4.458 0z" fill="#F4F4F4"/>
<path d="m454.25 188.56c1.981 1.152 1.981 3.045 0 4.198-1.982 1.152-5.201 1.152-7.183 0-1.981-1.153-1.981-3.046 0-4.198 1.982-1.152 5.201-1.152 7.183 0z" fill="#0078D4"/>
<path d="m452.93 189.3c1.238 0.74 1.238 1.893 0 2.551-1.238 0.741-3.22 0.741-4.458 0-1.239-0.741-1.239-1.893 0-2.551 1.238-0.659 3.22-0.659 4.458 0z" fill="#F4F4F4"/>
<path d="m400.83 284.93-1.238-0.329-1.404 0.823 0.578 0.741-0.66 0.411-2.23-2.798 0.661-0.412 4.871 1.317-0.578 0.247zm-2.972 0.082 1.073-0.658-1.899-0.576c-0.082 0-0.165-0.082-0.247-0.082 0.082 0.082 0.165 0.082 0.165 0.164l0.908 1.152z" fill="#505055"/>
<path d="m394.72 284.93-1.074 0.576 3.138 1.811-0.661 0.329-3.054-1.811-0.991 0.658-0.496-0.329 2.642-1.481 0.496 0.247z" fill="#505055"/>
<path d="m394.15 288.8-1.239-0.33-1.403 0.823 0.578 0.741-0.661 0.412-2.229-2.799 0.661-0.411 4.871 1.317-0.578 0.247zm-2.972 0.164 1.073-0.658-1.899-0.576c-0.082 0-0.165-0.083-0.247-0.083 0.082 0.083 0.165 0.083 0.165 0.165l0.908 1.152z" fill="#505055"/>
<path d="m389.85 290.7c0 0.412-0.33 0.741-0.991 1.153l-0.99 0.576-3.55-2.058 0.99-0.576c1.321-0.741 2.56-0.823 3.716-0.165 0.66 0.33 0.908 0.659 0.825 1.07zm-1.816 1.07 0.495-0.247c0.413-0.247 0.661-0.493 0.661-0.74s-0.248-0.494-0.661-0.741c-0.825-0.494-1.651-0.494-2.559 0l-0.495 0.247 2.559 1.481z" fill="#505055"/>
<path d="m403.97 282.79c-0.082 0.247-0.247 0.494-0.66 0.659l-1.156 0.658-3.55-2.058 1.156-0.658c0.33-0.165 0.66-0.329 1.073-0.329 0.33 0 0.661 0 0.908 0.164 0.165 0.083 0.33 0.247 0.33 0.412 0 0.164 1e-3 0.329-0.165 0.494 0.248-0.165 0.578-0.165 0.826-0.165 0.33 0 0.578 0.082 0.826 0.247 0.33 0.082 0.495 0.329 0.412 0.576zm-1.651 0.741 0.496-0.329c0.247-0.165 0.33-0.247 0.33-0.412 0-0.164-0.083-0.247-0.248-0.329-0.33-0.247-0.826-0.165-1.321 0.164l-0.413 0.247 1.156 0.659zm-1.568-0.906 0.412-0.246c0.248-0.083 0.331-0.247 0.331-0.33 0-0.164-0.083-0.247-0.248-0.329-0.33-0.164-0.661-0.164-1.073 0.082l-0.413 0.247 0.991 0.576z" fill="#505055"/>
<path d="m407.77 280.9-1.238-0.329-1.403 0.823 0.577 0.741-0.66 0.411-2.229-2.798 0.66-0.412 4.871 1.317-0.578 0.247zm-2.889 0.083 1.073-0.659-1.899-0.576c-0.082 0-0.165-0.082-0.247-0.082 0.082 0.082 0.165 0.082 0.165 0.164l0.908 1.153z" fill="#505055"/>
<path d="m414.21 277.2-1.982 1.152-3.632-2.058 1.899-1.07 0.578 0.247-1.321 0.823 0.99 0.576 1.239-0.74 0.495 0.329-1.238 0.658 1.073 0.576 1.404-0.74 0.495 0.247z" fill="#505055"/>
<path d="m410.33 278.35c0.165 0.082 0.33 0.247 0.33 0.329 0.082 0.082 0.082 0.247 0 0.329-0.083 0.082-0.165 0.247-0.248 0.329-0.082 0.083-0.247 0.247-0.495 0.329-0.083 0-0.165 0.083-0.248 0.083-0.082 0.082-0.165 0.082-0.33 0.164-0.083 0.083-0.248 0.083-0.33 0.083-0.083 0-0.165 0.082-0.248 0.082l-0.578-0.329h0.33c0.083 0 0.248-0.083 0.331-0.083 0.082 0 0.247-0.082 0.33-0.082 0.082 0 0.165-0.082 0.248-0.082 0.247-0.165 0.412-0.247 0.412-0.412 0-0.082 0-0.247-0.165-0.329-0.082-0.082-0.165-0.082-0.247-0.082h-0.331c-0.165 0-0.247 0-0.412 0.082-0.166 0-0.331 0.082-0.496 0.082s-0.33 0.083-0.578 0.083h-0.495c-0.165 0-0.33 0-0.413-0.083-0.165 0-0.33-0.082-0.413-0.164-0.165-0.082-0.247-0.247-0.33-0.329-0.083-0.083-0.083-0.247 0-0.33 0.083-0.082 0.083-0.247 0.248-0.329 0.082-0.082 0.247-0.247 0.413-0.329 0.33-0.247 0.66-0.329 0.908-0.412l0.578 0.33c-0.331 0-0.661 0.164-0.991 0.329-0.083 0.082-0.165 0.082-0.248 0.164-0.082 0.083-0.082 0.083-0.165 0.165 0 0.082-0.082 0.082 0 0.165 0 0.082 0.083 0.082 0.165 0.164 0.083 0.083 0.165 0.083 0.248 0.083h0.33c0.083 0 0.248 0 0.413-0.083 0.165 0 0.33-0.082 0.495-0.082s0.413-0.082 0.578-0.082h0.496c0.165 0 0.33 0 0.495 0.082 0.165 0 0.33 0.082 0.413 0.165z" fill="#505055"/>
<path d="m418.17 274.4c0.082 0.33-0.083 0.577-0.413 0.824-0.413 0.246-0.826 0.329-1.321 0.246-0.495-0.082-1.073-0.246-1.651-0.576-0.661-0.329-0.991-0.74-1.074-0.987-0.082-0.33 0.083-0.577 0.413-0.823 0.743-0.412 1.817-0.33 2.972 0.411 0.578 0.329 0.991 0.576 1.074 0.905zm-2.89 0.165c0.908 0.494 1.569 0.659 1.981 0.412 0.413-0.247 0.166-0.659-0.743-1.153-0.908-0.576-1.651-0.658-2.064-0.493-0.33 0.246-0.082 0.658 0.826 1.234z" fill="#505055"/>
<path d="m420.9 273.33-0.578 0.33-2.972-1.729c0 0.082-0.082 0.165-0.165 0.329-0.083 0.083-0.165 0.247-0.248 0.33l-0.495-0.247c0.083-0.083 0.165-0.165 0.165-0.247 0.083-0.083 0.083-0.165 0.165-0.247 0.083-0.082 0.083-0.165 0.083-0.247s0.082-0.165 0.082-0.247l0.248-0.165 3.715 2.14z" fill="#505055"/>
<path d="m348.32 268.72v-4.691c0 0.658 0.413 1.235 1.239 1.728v4.692c-0.826-0.494-1.239-1.153-1.239-1.729z" fill="#393940"/>
<path d="m414.7 264.52v4.692c0 0.576-0.413 1.234-1.239 1.646v-4.692c0.826-0.411 1.239-1.07 1.239-1.646z" fill="#393940"/>
<path d="m413.46 266.17v4.692l-28.566 16.543 0.083-4.692 28.483-16.543z" fill="#323237"/>
<path d="m379.04 282.71v4.691l-29.474-16.954v-4.691l29.474 16.954z" fill="#323237"/>
<path d="m413.47 262.8c1.651 0.905 1.651 2.469 0 3.374l-28.566 16.543c-1.651 0.906-4.21 0.906-5.862 0l-29.473-16.954c-1.652-0.906-1.652-2.469 0-3.375l28.565-16.543c1.651-0.905 4.293-0.905 5.862 0l29.474 16.955z" fill="#505055"/>
<path d="m384.98 282.71v4.691c-1.651 0.906-4.211 0.906-5.862 0v-4.691c1.569 0.905 4.211 0.988 5.862 0z" fill="#393940"/>
<g opacity=".25">
<path d="m401.33 257.2c7.843 4.527 7.843 11.769 0.083 16.296-7.761 4.527-20.393 4.527-28.236 0s-7.843-11.769-0.083-16.296c7.844-4.527 20.475-4.527 28.236 0z" fill="url(#n)" opacity=".25"/>
</g>
<path d="m396.29 262.14-0.083 2.716c0 2.14-1.403 4.362-4.293 6.008-5.779 3.375-15.108 3.375-20.97 0-2.89-1.646-4.376-3.868-4.376-6.09l0.083-2.716c0 2.222 1.486 4.444 4.375 6.09 5.78 3.375 15.191 3.375 20.971 0 2.889-1.728 4.293-3.868 4.293-6.008z" fill="#323237"/>
<path d="m396.87 234.98-0.083 28.642c0 2.222-1.486 4.527-4.458 6.255-6.027 3.457-15.769 3.457-21.796 0-3.055-1.728-4.541-4.033-4.541-6.337l0.083-28.642c0 2.305 1.486 4.609 4.54 6.337 6.027 3.457 15.769 3.457 21.796 0 2.973-1.728 4.459-3.95 4.459-6.255z" fill="url(#h)"/>
<path d="m397.04 234.32-0.083 2.881c0 2.304-1.486 4.526-4.458 6.255-6.027 3.456-15.769 3.456-21.879 0-3.054-1.729-4.54-4.033-4.54-6.338l0.082-2.88c0 2.304 1.486 4.609 4.541 6.337 6.027 3.457 15.852 3.457 21.879 0 2.889-1.728 4.375-3.951 4.458-6.255z" fill="#CDCDD0"/>
<path d="m392.5 228.56c6.027 3.457 6.109 9.136 0.082 12.675-6.027 3.457-15.851 3.457-21.878 0s-6.11-9.135-0.083-12.592c5.945-3.539 15.769-3.539 21.879-0.083z" fill="#fff"/>
<path d="m389.85 230.12c4.623 2.633 4.623 6.995 0.082 9.629-4.623 2.634-12.054 2.634-16.677 0s-4.623-6.996-0.082-9.629c4.623-2.717 12.053-2.717 16.677 0z" fill="#CDCDD0"/>
<path d="m373.18 231.44c4.623-2.634 12.054-2.634 16.677 0 1.981 1.152 3.137 2.634 3.385 4.115 0.33-1.975-0.826-4.032-3.385-5.514-4.623-2.634-12.136-2.634-16.677 0-2.559 1.482-3.715 3.539-3.385 5.514 0.248-1.481 1.403-2.963 3.385-4.115z" fill="#78787D"/>
<path d="m490.74 225.84-1.074 0.576 3.055 1.729-0.578 0.329-3.054-1.729-0.991 0.576-0.496-0.246 2.642-1.564 0.496 0.329z" fill="#505055"/>
<path d="m490.08 229.71-1.238-0.33-1.404 0.823 0.578 0.741-0.66 0.412-2.23-2.799 0.661-0.411 4.871 1.317-0.578 0.247zm-2.89 0.082 1.074-0.659-1.899-0.493c-0.083 0-0.165-0.083-0.248-0.083 0.083 0.083 0.165 0.083 0.165 0.165l0.908 1.07z" fill="#505055"/>
<path d="m485.87 231.6c0 0.412-0.33 0.823-0.99 1.152l-0.991 0.576-3.55-2.057 0.991-0.576c1.321-0.741 2.559-0.823 3.715-0.165 0.66 0.247 0.908 0.659 0.825 1.07zm-1.816 1.07 0.495-0.247c0.413-0.247 0.661-0.494 0.661-0.741s-0.248-0.493-0.661-0.74c-0.825-0.494-1.651-0.494-2.559 0l-0.495 0.247 2.559 1.481z" fill="#505055"/>
<path d="m499.99 223.7c-0.083 0.247-0.248 0.494-0.66 0.658l-1.156 0.659-3.55-2.058 1.155-0.658c0.331-0.165 0.661-0.329 1.074-0.329 0.33 0 0.66 0 0.908 0.164 0.165 0.083 0.33 0.247 0.33 0.412 0 0.164 0 0.329-0.165 0.494 0.248-0.083 0.578-0.165 0.826-0.165 0.33 0 0.577 0.082 0.825 0.247 0.33 0.082 0.413 0.329 0.413 0.576zm-1.651 0.741 0.495-0.329c0.248-0.165 0.33-0.247 0.33-0.412s-0.082-0.247-0.247-0.329c-0.331-0.247-0.826-0.165-1.321 0.164l-0.413 0.247 1.156 0.659zm-1.651-0.988 0.412-0.247c0.165-0.082 0.331-0.247 0.331-0.329s-0.083-0.247-0.248-0.329c-0.33-0.165-0.661-0.165-1.073 0.082l-0.413 0.247 0.991 0.576z" fill="#505055"/>
<path d="m496.85 225.84-1.238-0.329-1.403 0.823 0.578 0.74-0.661 0.412-2.229-2.798 0.66-0.412 4.871 1.317-0.578 0.247zm-2.972 0.082 1.074-0.658-1.899-0.494c-0.083 0-0.165-0.082-0.248-0.082 0.083 0.082 0.165 0.082 0.165 0.164l0.908 1.07z" fill="#505055"/>
<path d="m506.34 219.26c0.165 0.082 0.33 0.247 0.33 0.329 0.083 0.082 0.083 0.247 0 0.329-0.082 0.083-0.165 0.247-0.247 0.329-0.165 0.083-0.248 0.247-0.496 0.33-0.082 0-0.165 0.082-0.247 0.082-0.083 0.082-0.165 0.082-0.33 0.165-0.083 0-0.248 0.082-0.331 0.082-0.082 0-0.165 0.082-0.247 0.082l-0.578-0.329h0.33c0.083 0 0.248-0.082 0.33-0.082 0.083 0 0.248-0.083 0.33-0.083 0.083 0 0.166-0.082 0.248-0.082 0.248-0.165 0.413-0.247 0.413-0.411 0-0.083 0-0.247-0.165-0.33-0.083-0.082-0.165-0.082-0.248-0.082h-0.33c-0.083 0-0.248 0-0.413 0.082-0.165 0-0.33 0.083-0.495 0.083s-0.331 0.082-0.496 0.082h-0.495c-0.165 0-0.33 0-0.413-0.082-0.165 0-0.33-0.083-0.413-0.165-0.165-0.082-0.247-0.165-0.33-0.329-0.082-0.082-0.082-0.247 0-0.329 0.083-0.083 0.165-0.247 0.248-0.33 0.082-0.082 0.248-0.247 0.413-0.329 0.412-0.247 0.66-0.329 0.908-0.411l0.578 0.329c-0.331 0-0.661 0.164-0.991 0.329-0.083 0.082-0.165 0.082-0.248 0.165-0.082 0.082-0.082 0.082-0.165 0.164v0.165c0 0.082 0.083 0.082 0.165 0.165 0.083 0.082 0.165 0.082 0.248 0.082h0.33c0.083 0 0.248 0 0.413-0.082 0.165 0 0.33-0.083 0.495-0.083 0.166 0 0.413-0.082 0.578-0.082h0.496c0.165 0 0.33 0 0.495 0.082 0.083 0 0.248 0.083 0.33 0.165z" fill="#505055"/>
<path d="m503.79 221.81-1.238-0.329-1.404 0.823 0.578 0.658-0.66 0.412-2.229-2.799 0.66-0.411 4.871 1.317-0.578 0.329zm-2.972 0.082 1.073-0.658-1.899-0.494c-0.082 0-0.165-0.082-0.247-0.082 0.082 0.082 0.165 0.082 0.165 0.164l0.908 1.07z" fill="#505055"/>
<path d="m510.23 218.1-2.064 1.152-3.551-2.058 1.899-1.152 0.578 0.329-1.403 0.741 1.073 0.576 1.238-0.658 0.496 0.247-1.239 0.74 1.074 0.576 1.403-0.823 0.496 0.33z" fill="#505055"/>
<path d="m516.91 214.24-0.578 0.33-2.972-1.729c0 0.082-0.083 0.165-0.165 0.329-0.083 0.083-0.165 0.247-0.248 0.33l-0.495-0.247c0.082-0.083 0.165-0.165 0.165-0.247 0.082-0.083 0.082-0.165 0.165-0.247 0.082-0.082 0.082-0.165 0.082-0.247s0.083-0.165 0.083-0.247l0.248-0.165 3.715 2.14z" fill="#505055"/>
<path d="m514.19 215.31c0.083 0.33-0.082 0.576-0.413 0.823-0.33 0.247-0.825 0.33-1.321 0.247-0.495-0.082-1.073-0.247-1.651-0.576-0.66-0.329-0.991-0.658-1.073-0.987-0.083-0.33 0-0.577 0.413-0.823 0.743-0.412 1.816-0.33 2.972 0.411 0.578 0.247 0.991 0.576 1.073 0.905zm-2.889 0.083c0.908 0.493 1.568 0.658 1.981 0.411s0.165-0.658-0.743-1.152c-0.908-0.576-1.651-0.658-1.981-0.494-0.413 0.329-0.166 0.741 0.743 1.235z" fill="#505055"/>
<path d="m444.34 209.54v-4.692c0 0.659 0.413 1.235 1.239 1.729v4.691c-0.826-0.412-1.239-1.07-1.239-1.728z" fill="#BCBCBC"/>
<path d="m510.72 205.35v4.691c0 0.576-0.413 1.235-1.238 1.646v-4.691c0.825-0.412 1.238-0.988 1.238-1.646z" fill="#393940"/>
<path d="m509.48 207.08v4.691l-28.565 16.543 0.082-4.691 28.483-16.543z" fill="#323237"/>
<path d="m475.06 223.62v4.609l-29.474-16.954v-4.692l29.474 17.037z" fill="#323237"/>
<path d="m509.48 203.7c1.651 0.906 1.651 2.47 0 3.375l-28.484 16.543c-1.651 0.905-4.21 0.905-5.861 0l-29.557-17.037c-1.651-0.905-1.651-2.469 0-3.374l28.566-16.543c1.651-0.906 4.293-0.906 5.862 0l29.474 17.036z" fill="#505055"/>
<path d="m481 223.62v4.691c-1.651 0.905-4.211 0.905-5.862 0v-4.691c1.569 0.905 4.211 0.905 5.862 0z" fill="#393940"/>
<g opacity=".25">
<path d="m496.77 197.28c7.843 4.526 7.843 11.769 0.082 16.296-7.76 4.527-20.392 4.527-28.235 0s-7.843-11.77-0.083-16.296c7.761-4.527 20.393-4.527 28.236 0z" fill="url(#g)" opacity=".25"/>
</g>
<path d="m492.31 202.96-0.083 2.716c0 2.14-1.403 4.363-4.293 6.009-5.779 3.374-15.108 3.374-20.97 0-2.89-1.646-4.376-3.869-4.376-6.091l0.083-2.716c0 2.222 1.486 4.445 4.376 6.091 5.779 3.374 15.191 3.374 20.97 0 2.889-1.646 4.293-3.786 4.293-6.009z" fill="#323237"/>
<path d="m492.89 175.88-0.083 28.641c0 2.222-1.486 4.527-4.458 6.255-6.027 3.457-15.769 3.457-21.796 0-3.055-1.728-4.541-4.033-4.541-6.337l0.083-28.642c0 2.305 1.486 4.609 4.541 6.338 6.026 3.456 15.769 3.456 21.796 0 2.972-1.729 4.458-4.033 4.458-6.255z" fill="url(#f)"/>
<path d="m492.97 175.22-0.082 2.881c0 2.305-1.486 4.527-4.458 6.255-6.027 3.457-15.769 3.457-21.879 0-3.055-1.728-4.541-4.033-4.541-6.337l0.083-2.881c0 2.305 1.486 4.609 4.541 6.337 6.027 3.457 15.851 3.457 21.878 0 2.972-1.728 4.458-4.032 4.458-6.255z" fill="#CDCDD0"/>
<path d="m488.43 169.46c6.027 3.457 6.109 9.136 0.082 12.675-6.027 3.457-15.851 3.457-21.878 0s-6.11-9.136-0.083-12.592c6.027-3.54 15.852-3.54 21.879-0.083z" fill="#fff"/>
<path d="m485.87 170.94c4.623 2.633 4.623 6.995 0.083 9.629-4.624 2.634-12.054 2.634-16.678 0-4.623-2.634-4.623-6.996-0.082-9.629 4.623-2.634 12.054-2.634 16.677 0z" fill="#CDCDD0"/>
<path d="m469.19 172.34c4.623-2.634 12.054-2.634 16.677 0 1.982 1.152 3.137 2.633 3.385 4.115 0.33-1.975-0.825-4.033-3.385-5.514-4.623-2.634-12.136-2.634-16.677 0-2.559 1.481-3.715 3.539-3.385 5.514 0.248-1.482 1.404-2.963 3.385-4.115z" fill="#78787D"/>
<path d="m443.44 255.88-0.991 0.576 3.055 1.728-0.578 0.412-3.055-1.811-1.073 0.576-0.496-0.247 2.642-1.563 0.496 0.329z" fill="#505055"/>
<path d="m442.86 259.75-1.238-0.329-1.404 0.823 0.578 0.741-0.66 0.411-2.229-2.798 0.66-0.411 4.871 1.316-0.578 0.247zm-2.972 0.083 1.073-0.659-1.898-0.576c-0.083 0-0.165-0.082-0.248-0.082 0.083 0.082 0.165 0.082 0.165 0.164l0.908 1.153z" fill="#505055"/>
<path d="m438.65 261.64c0 0.412-0.33 0.741-0.991 1.153l-0.991 0.576-3.55-2.058 0.991-0.576c1.321-0.741 2.559-0.823 3.715-0.165 0.578 0.247 0.826 0.659 0.826 1.07zm-1.899 1.07 0.495-0.247c0.413-0.247 0.661-0.493 0.661-0.74s-0.248-0.494-0.661-0.741c-0.825-0.494-1.651-0.494-2.559 0l-0.495 0.247 2.559 1.481z" fill="#505055"/>
<path d="m449.54 255.88-1.238-0.329-1.404 0.823 0.578 0.74-0.661 0.412-2.229-2.798 0.661-0.412 4.871 1.317-0.578 0.247zm-2.972 0.082 1.073-0.658-1.899-0.576c-0.082 0-0.165-0.083-0.248-0.083 0.083 0.083 0.166 0.083 0.166 0.165l0.908 1.152z" fill="#505055"/>
<path d="m452.68 253.74c-0.082 0.247-0.247 0.494-0.66 0.658l-1.156 0.659-3.55-2.058 1.156-0.658c0.33-0.165 0.66-0.33 1.073-0.33 0.33 0 0.66 0 0.908 0.165 0.165 0.082 0.33 0.247 0.33 0.412 0 0.164 0 0.329-0.165 0.493 0.248-0.164 0.578-0.164 0.826-0.164 0.33 0 0.578 0.082 0.825 0.247 0.331 0.082 0.496 0.329 0.413 0.576zm-1.651 0.741 0.495-0.33c0.248-0.164 0.331-0.247 0.331-0.411 0-0.165-0.083-0.247-0.248-0.329-0.33-0.247-0.826-0.165-1.321 0.082l-0.413 0.247 1.156 0.741zm-1.569-0.988 0.413-0.247c0.248-0.082 0.33-0.247 0.33-0.329 0-0.165-0.082-0.247-0.247-0.329-0.33-0.165-0.661-0.165-1.073 0.082l-0.413 0.247 0.99 0.576z" fill="#505055"/>
<path d="m469.61 244.28-0.578 0.33-2.972-1.729c0 0.082-0.082 0.165-0.165 0.329-0.083 0.083-0.165 0.247-0.248 0.33l-0.495-0.247c0.083-0.083 0.165-0.165 0.165-0.247 0.083-0.083 0.083-0.165 0.165-0.247 0.083-0.082 0.083-0.165 0.083-0.247s0.082-0.165 0.082-0.247l0.248-0.165 3.715 2.14z" fill="#505055"/>
<path d="m466.88 245.35c0.083 0.33-0.083 0.577-0.413 0.823-0.413 0.247-0.825 0.33-1.321 0.247-0.495-0.082-1.073-0.247-1.651-0.576-0.66-0.329-0.991-0.74-1.073-0.987-0.083-0.33 0.082-0.577 0.413-0.823 0.743-0.412 1.733-0.33 2.972 0.411 0.66 0.247 0.99 0.576 1.073 0.905zm-2.807 0.083c0.908 0.494 1.569 0.658 1.981 0.411 0.413-0.247 0.166-0.658-0.743-1.152-0.908-0.576-1.651-0.658-2.064-0.494-0.412 0.329-0.165 0.741 0.826 1.235z" fill="#505055"/>
<path d="m462.92 248.14-1.981 1.152-3.55-2.058 1.899-1.152 0.495 0.329-1.321 0.741 0.991 0.576 1.238-0.658 0.496 0.247-1.239 0.74 1.073 0.577 1.404-0.823 0.495 0.329z" fill="#505055"/>
<path d="m459.12 249.3c0.165 0.082 0.33 0.247 0.33 0.329 0.083 0.082 0.083 0.247 0 0.329s-0.165 0.247-0.248 0.329c-0.082 0.083-0.247 0.247-0.495 0.33-0.083 0-0.165 0.082-0.248 0.082-0.082 0.082-0.165 0.082-0.33 0.164-0.083 0.083-0.248 0.083-0.33 0.083-0.083 0-0.165 0.082-0.248 0.082l-0.578-0.329h0.33c0.083 0 0.248-0.082 0.331-0.082 0.082 0 0.247-0.083 0.33-0.083 0.082 0 0.165-0.082 0.248-0.082 0.247-0.165 0.412-0.247 0.412-0.412 0.083-0.082 0-0.247-0.165-0.329-0.082-0.082-0.165-0.082-0.247-0.082h-0.331c-0.165 0-0.247 0-0.412 0.082-0.166 0-0.331 0.082-0.496 0.082s-0.33 0.083-0.495 0.083h-0.496c-0.165 0-0.33 0-0.495-0.083-0.165 0-0.248-0.082-0.413-0.164s-0.247-0.247-0.33-0.329c-0.083-0.083-0.083-0.247 0-0.33 0.083-0.082 0.083-0.246 0.248-0.329 0.082-0.082 0.247-0.247 0.413-0.329 0.33-0.247 0.66-0.329 0.908-0.412l0.578 0.33c-0.331 0-0.661 0.164-0.991 0.329-0.083 0.082-0.165 0.082-0.248 0.165-0.082 0.082-0.082 0.082-0.165 0.164 0 0.082-0.083 0.082 0 0.165 0 0.082 0.083 0.082 0.165 0.164 0.083 0.083 0.165 0.083 0.248 0.083h0.33c0.083 0 0.248 0 0.413-0.083 0.165 0 0.33-0.082 0.495-0.082s0.413-0.082 0.578-0.082h0.496c0.165 0 0.33 0 0.495 0.082 0.083 0 0.248 0.082 0.413 0.165z" fill="#505055"/>
<path d="m456.56 251.85-1.238-0.329-1.404 0.823 0.578 0.741-0.66 0.411-2.23-2.798 0.661-0.412 4.871 1.317-0.578 0.247zm-2.972 0.082 1.073-0.658-1.899-0.576c-0.082 0-0.165-0.082-0.247-0.082 0.082 0.082 0.165 0.082 0.165 0.164l0.908 1.152z" fill="#505055"/>
<path d="m397.04 239.67v-4.691c0 0.658 0.413 1.234 1.239 1.728v4.691c-0.826-0.494-1.239-1.152-1.239-1.728z" fill="#393940"/>
<path d="m463.41 235.39v4.692c0 0.576-0.413 1.234-1.238 1.646v-4.692c0.825-0.411 1.238-0.987 1.238-1.646z" fill="#393940"/>
<path d="m462.26 237.12-0.083 4.691-28.483 16.543v-4.691l28.566-16.543z" fill="#323237"/>
<path d="m427.83 253.66v4.691l-29.557-17.037 0.083-4.609 29.474 16.955z" fill="#323237"/>
<path d="m462.18 233.74c1.651 0.905 1.651 2.469 0 3.374l-28.566 16.543c-1.651 0.906-4.211 0.906-5.862 0l-29.474-16.954c-1.651-0.905-1.651-2.469 0-3.375l28.566-16.543c1.651-0.905 4.293-0.905 5.862 0l29.474 16.955z" fill="#505055"/>
<path d="m433.69 253.66v4.691c-1.651 0.905-4.211 0.905-5.862 0v-4.691c1.569 0.905 4.211 0.905 5.862 0z" fill="#393940"/>
<g opacity=".25">
<path d="m449.46 227.32c7.843 4.526 7.843 11.769 0.082 16.296-7.76 4.527-20.392 4.527-28.235 0s-7.843-11.77-0.083-16.296c7.843-4.527 20.475-4.527 28.236 0z" fill="url(#e)" opacity=".25"/>
</g>
<path d="m445 233-0.082 2.716c0 2.139-1.404 4.362-4.293 6.008-5.78 3.374-15.109 3.374-20.971 0-2.889-1.646-4.375-3.869-4.375-6.091l0.082-2.716c0 2.222 1.486 4.445 4.376 6.091 5.779 3.374 15.191 3.374 20.97 0 2.89-1.646 4.293-3.786 4.293-6.008z" fill="#323237"/>
<path d="m445.66 205.92-0.083 28.642c0 2.222-1.486 4.527-4.458 6.255-6.027 3.457-15.769 3.457-21.796 0-3.055-1.728-4.541-4.033-4.541-6.337l0.083-28.642c0 2.305 1.486 4.609 4.541 6.337 6.026 3.457 15.769 3.457 21.796 0 2.972-1.728 4.458-4.032 4.458-6.255z" fill="url(#d)"/>
<path d="m445.75 205.26-0.082 2.881c0 2.304-1.487 4.526-4.459 6.255-6.027 3.457-15.769 3.457-21.878 0-3.055-1.729-4.541-4.033-4.541-6.337l0.083-2.881c0 2.304 1.486 4.609 4.54 6.337 6.027 3.457 15.852 3.457 21.879 0 2.972-1.728 4.458-4.033 4.458-6.255z" fill="#CDCDD0"/>
<path d="m441.21 199.5c6.026 3.457 6.109 9.136 0.082 12.675-6.027 3.456-15.851 3.456-21.878 0-6.027-3.457-6.11-9.136-0.083-12.593 6.027-3.539 15.769-3.539 21.879-0.082z" fill="#fff"/>
<path d="m438.65 200.98c4.623 2.633 4.623 6.995 0.082 9.629-4.623 2.634-12.053 2.634-16.677 0-4.623-2.634-4.623-6.996-0.082-9.629 4.54-2.634 12.054-2.634 16.677 0z" fill="#CDCDD0"/>
<path d="m421.89 202.38c4.623-2.634 12.054-2.634 16.677 0 1.981 1.152 3.137 2.633 3.385 4.115 0.33-1.975-0.826-4.033-3.385-5.514-4.623-2.634-12.136-2.634-16.677 0-2.559 1.481-3.715 3.539-3.385 5.514 0.33-1.482 1.403-2.963 3.385-4.115z" fill="#78787D"/>
<path d="m289.54 125.35 21.795-12.181c0.331-0.164 0.743-0.164 1.074 0l30.464 17.613c0.743 0.412 0.743 1.482 0 1.893l-21.796 12.181c-0.33 0.165-0.743 0.165-1.073 0l-30.547-17.613c-0.743-0.411-0.743-1.481 0.083-1.893z" fill="url(#c)" opacity=".35"/>
<path d="m320.09 216.7-9.659-5.35c-0.165-0.082-0.33-0.082-0.496 0l-13.457 7.736c-0.33 0.165-0.33 0.659 0 0.823l9.66 5.35c0.165 0.082 0.33 0.082 0.495 0l13.457-7.736c0.331-0.165 0.331-0.659 0-0.823z" fill="url(#b)" opacity=".35"/>
<path d="m343.37 202.3-9.66-5.35c-0.165-0.082-0.33-0.082-0.495 0l-13.458 7.736c-0.33 0.165-0.33 0.659 0 0.823l9.66 5.35c0.165 0.082 0.33 0.082 0.495 0l13.458-7.736c0.33-0.165 0.33-0.659 0-0.823z" fill="url(#a)" opacity=".35"/>
<path d="m318.44 153.82-24.108-13.415c-0.413-0.247-0.825-0.247-1.238 0l-33.685 19.423c-0.825 0.494-0.825 1.646 0 2.14l24.108 13.415c0.413 0.247 0.825 0.247 1.238 0l33.685-19.423c0.825-0.494 0.825-1.646 0-2.14z" fill="url(#x)" opacity=".35"/>
<path d="m357.98 138.02-24.107-13.004c-0.413-0.165-0.826-0.165-1.239 0l-5.283 3.539c-1.404 0.988-1.321 3.128 0.165 3.951l22.043 11.851c0.743 0.412 1.651 0.329 2.394-0.164l6.027-4.116c0.826-0.493 0.743-1.646 0-2.057z" fill="url(#w)" opacity=".35"/>
<path d="m389.94 207.24-24.107-13.004c-0.413-0.165-0.826-0.165-1.238 0l-2.147-1.153c-1.404 0.988-1.321 3.128 0.165 3.951l22.456 13.662c0.743 0.412 1.652 0.33 2.395-0.164l2.476-1.235c0.826-0.494 0.826-1.646 0-2.057z" fill="url(#v)" opacity=".35"/>
<path d="m410.08 193.82-24.108-13.004c-0.412-0.164-0.825-0.164-1.238 0l-2.146-1.152c-1.404 0.988-1.321 3.128 0.165 3.951l22.456 13.662c0.743 0.412 1.651 0.329 2.394-0.164l2.477-1.235c0.826-0.494 0.826-1.646 0-2.058z" fill="url(#u)" opacity=".35"/>
<path d="m429.81 182.71-24.108-13.004c-0.412-0.165-0.825-0.165-1.238 0l-2.147-1.153c-1.403 0.988-1.321 3.128 0.166 3.951l22.456 13.662c0.743 0.412 1.651 0.33 2.394-0.164l2.477-1.235c0.825-0.411 0.825-1.564 0-2.057z" fill="url(#t)" opacity=".35"/>
<path d="m322.57 188.8-9.66-5.35c-0.165-0.082-0.33-0.082-0.495 0l-13.457 7.737c-0.331 0.164-0.331 0.658 0 0.823l9.659 5.35c0.165 0.082 0.33 0.082 0.496 0l13.457-7.737c0.33-0.165 0.33-0.658 0-0.823z" fill="url(#s)" opacity=".35"/>
<path d="m335.28 99.093-0.082 37.86-45.078-25.926 0.083-37.859 45.077 25.926z" fill="#185A97"/>
<path d="m335.28 99.093 9.329-5.432-0.082 37.942-9.33 5.35 0.083-37.86z" fill="#0078D4"/>
<path d="m290.2 73.168 9.329-5.4321 45.078 25.926-9.329 5.4321-45.078-25.926z" fill="#2195DC"/>
<path d="m311.09 68.311 1.651-1.0699 2.147 3.9505-1.569 1.07-2.229-3.9506z" fill="#A1F6FF"/>
<path d="m299.37 61.563 1.651-1.0699 11.723 6.7489-1.651 1.0699-11.723-6.7489z" fill="#CCFDFF"/>
<path d="m311.09 68.311 2.229 3.9505 27.575 15.802v6.0082l-41.527-23.868v-8.6419l11.723 6.7489z" fill="#50E6FF"/>
<path d="m313.32 72.262 1.568-1.0699 27.658 15.802-1.651 1.07-27.575-15.802z" fill="#CCFDFF"/>
<path d="m340.9 88.064 1.651-1.0699v5.9258l-1.651 1.1523v-6.0082z" fill="#A1F6FF"/>
<path d="m308.12 70.04 1.569-1.07 2.146 3.8683-1.568 1.1522-2.147-3.9505z" fill="#A1F6FF"/>
<path d="m296.39 63.291 1.569-1.07 11.723 6.7489-1.568 1.07-11.724-6.7489z" fill="#CCFDFF"/>
<path d="m308.12 70.04 2.146 3.9506 27.658 15.802v5.9258l-41.61-23.786 0.082-8.6418 11.724 6.7488z" fill="#50E6FF"/>
<path d="m310.26 73.991 1.568-1.1523 27.658 15.885-1.569 1.0699-27.657-15.802z" fill="#CCFDFF"/>
<path d="m337.92 89.793 1.569-1.0699v5.9258l-1.569 1.07v-5.9259z" fill="#A1F6FF"/>
<path d="m305.06 71.686 1.569-1.07 2.229 3.8683-1.651 1.1522-2.147-3.9505z" fill="#A1F6FF"/>
<path d="m293.34 64.937 1.568-1.0699 11.724 6.7489-1.569 1.0699-11.723-6.7489z" fill="#CCFDFF"/>
<path d="m305.06 71.686 2.146 3.9506 27.658 15.802v5.9258l-41.528-23.786v-8.6418l11.724 6.7488z" fill="#50E6FF"/>
<path d="m307.21 75.637 1.652-1.1523 27.657 15.885-1.651 1.0699-27.658-15.802z" fill="#CCFDFF"/>
<path d="m334.87 91.439 1.651-1.0699-0.082 5.9258-1.569 1.07v-5.9259z" fill="#A1F6FF"/>
<path d="m300.28 178.35-0.083 15.802-13.787-7.901v-15.802l13.87 7.901z" fill="#45CAF2"/>
<path d="m300.28 178.35 13.457-7.901-0.083 15.802-13.457 7.901 0.083-15.802z" fill="#50E6FF"/>
<path d="m286.41 170.45 13.457-7.983 13.87 7.983-13.457 7.901-13.87-7.901z" fill="#50E6FF"/>
<path d="m322.07 190.78v16.379l-14.283-8.231v-16.378l14.283 8.23z" fill="#243A5E"/>
<path d="m322.07 190.78 13.952-8.23v16.378l-13.952 8.231v-16.379z" fill="#1D4A79"/>
<path d="m307.79 182.55 13.953-8.23 14.283 8.23-13.953 8.23-14.283-8.23z" fill="#156AB3"/>
<path d="m300.52 205.92-0.083 16.131-14.035-8.148v-16.131l14.118 8.148z" fill="#0078D4"/>
<path d="m300.52 205.92 13.705-8.148v16.131l-13.788 8.148 0.083-16.131z" fill="#2195DC"/>
<path d="m286.41 197.78 13.787-8.148 14.035 8.148-13.705 8.148-14.117-8.148z" fill="#45CAF2"/>
<path d="m408.92 139.75 9.165 5.268-0.083 36.789-32.116-18.518 0.165-46.584 22.952 13.169-0.083 9.876z" fill="#2195DC"/>
<path d="m410.49 144.94v2.634l-18.576-10.782v-2.634l18.576 10.782z" fill="#50E6FF"/>
<path d="m410.49 150.04v2.716l-18.576-10.782v-2.716l18.576 10.782z" fill="#50E6FF"/>
<path d="m410.49 154.98v2.716l-18.576-10.781v-2.634l18.576 10.699z" fill="#50E6FF"/>
<path d="m409.01 129.88 4.21-2.387-0.082 9.794-4.211 2.469 0.083-9.876z" fill="#0078D4"/>
<path d="m386.06 116.71 4.21-2.469 22.952 13.251-4.211 2.387-22.951-13.169z" fill="#32B0E7"/>
<path d="m409.01 129.88 4.21-2.387 9.164 15.062-4.21 2.469-9.164-15.144z" fill="#A1F6FF"/>
<path d="m408.92 139.75 4.211-2.469 9.246 5.267-4.21 2.47-9.247-5.268z" fill="#A1F6FF"/>
<path d="m418.17 145.02 4.21-2.469-0.165 36.789-4.21 2.469 0.165-36.789z" fill="#32B0E7"/>
<path d="m409.01 129.88 9.164 15.143-9.247-5.267 0.083-9.876z" fill="#50E6FF"/>
<path d="m388.2 150.53 9.164 5.267-0.082 36.79-32.116-18.519 0.165-46.583 22.952 13.168-0.083 9.877z" fill="#0078D4"/>
<path d="m389.77 155.72v2.634l-18.576-10.782v-2.633l18.576 10.781z" fill="#50E6FF"/>
<path d="m389.77 160.82v2.716l-18.576-10.782v-2.716l18.576 10.782z" fill="#50E6FF"/>
<path d="m389.77 165.76v2.716l-18.576-10.781v-2.634l18.576 10.699z" fill="#50E6FF"/>
<path d="m388.28 140.66 4.21-2.387-0.082 9.794-4.211 2.469 0.083-9.876z" fill="#0078D4"/>
<path d="m365.33 127.49 4.211-2.469 22.951 13.251-4.21 2.387-22.952-13.169z" fill="#32B0E7"/>
<path d="m388.28 140.66 4.21-2.387 9.164 15.062-4.21 2.469-9.164-15.144z" fill="#A1F6FF"/>
<path d="m388.2 150.53 4.211-2.469 9.246 5.268-4.21 2.469-9.247-5.268z" fill="#A1F6FF"/>
<path d="m397.45 155.8 4.211-2.469-0.165 36.789-4.211 2.469 0.165-36.789z" fill="#2195DC"/>
<path d="m388.28 140.66 9.164 15.144-9.247-5.267 0.083-9.877z" fill="#50E6FF"/>
<path d="m365.91 162.71 9.164 5.268-0.082 36.789-32.116-18.518 0.165-46.584 22.952 13.169-0.083 9.876z" fill="#185A97"/>
<path d="m367.56 167.98-0.083 2.634-18.576-10.782v-2.634l18.659 10.782z" fill="#0078D4"/>
<path d="m367.56 173.08-0.083 2.634-18.576-10.7v-2.716l18.659 10.782z" fill="#0078D4"/>
<path d="m367.56 178.02-0.083 2.716-18.576-10.782v-2.716l18.659 10.782z" fill="#0078D4"/>
<path d="m365.99 152.92 4.211-2.387v9.794l-4.293 2.387 0.082-9.794z" fill="#0078D4"/>
<path d="m343.04 139.75 4.21-2.469 22.952 13.251-4.211 2.387-22.951-13.169z" fill="#2195DC"/>
<path d="m365.99 152.92 4.211-2.387 9.164 15.062-4.211 2.469-9.164-15.144z" fill="#32B0E7"/>
<path d="m375.16 168.06 4.21-2.47-0.165 36.79-4.21 2.469 0.165-36.789z" fill="#0078D4"/>
<path d="m365.99 152.92 9.164 15.144-9.246-5.349 0.082-9.795z" fill="#0078D4"/>
<path d="m82.73 202.38-10.155-5.761c-0.1651-0.083-0.3302-0.083-0.4953 0l-14.2 8.312c-0.3302 0.165-0.3302 0.741 0 0.906l10.155 5.761c0.1651 0.082 0.3303 0.082 0.4954 0l14.2-8.313c0.3302-0.164 0.3302-0.741 0-0.905z" fill="url(#r)" opacity=".35"/>
<path d="m108.4 186.75-10.154-5.761c-0.1652-0.082-0.3303-0.082-0.4954 0l-14.118 8.313c-0.3302 0.164-0.3302 0.74 0 0.905l10.155 5.761c0.1651 0.083 0.3303 0.083 0.4954 0l14.2-8.312c0.33-0.165 0.33-0.659-0.083-0.906z" fill="url(#q)" opacity=".35"/>
<path d="m133.09 170.7-10.154-5.761c-0.166-0.082-0.331-0.082-0.496 0l-14.2 8.313c-0.33 0.164-0.33 0.74 0 0.905l10.155 5.761c0.165 0.083 0.33 0.083 0.495 0l14.2-8.312c0.331-0.165 0.331-0.659 0-0.906z" fill="url(#p)" opacity=".35"/>
<path d="m185.27 139.92-10.155-5.761c-0.165-0.083-0.33-0.083-0.495 0l-14.2 8.312c-0.331 0.165-0.331 0.741 0 0.905l10.154 5.762c0.166 0.082 0.331 0.082 0.496 0l14.2-8.313c0.33-0.165 0.33-0.741 0-0.905z" fill="url(#o)" opacity=".35"/>
<path d="m212.1 125.02-10.403-5.926c-0.165-0.082-0.33-0.082-0.495 0l-14.531 8.56c-0.33 0.246-0.33 0.74 0 0.905l10.403 5.926c0.165 0.082 0.33 0.082 0.495 0l14.531-8.56c0.33-0.164 0.33-0.658 0-0.905z" fill="url(#m)" opacity=".35"/>
<path d="m237.53 109.13-10.402-5.844c-0.166-0.082-0.331-0.082-0.496 0l-14.448 8.478c-0.33 0.247-0.33 0.74 0 0.905l10.403 5.844c0.165 0.082 0.33 0.082 0.495 0l14.448-8.478c0.413-0.164 0.413-0.74 0-0.905z" fill="url(#l)" opacity=".35"/>
<path d="m264.28 94.32-10.155-5.7613c-0.165-0.0823-0.33-0.0823-0.495 0l-14.201 8.3127c-0.33 0.1646-0.33 0.7407 0 0.9053l10.155 5.7617c0.165 0.082 0.33 0.082 0.496 0l14.2-8.3131c0.413-0.2469 0.413-0.7407 0-0.9053z" fill="url(#k)" opacity=".35"/>
<path d="m291.03 79.423-10.154-5.7613c-0.166-0.0823-0.331-0.0823-0.496 0l-14.2 8.3127c-0.33 0.1646-0.33 0.7407 0 0.9053l10.155 5.7612c0.165 0.0823 0.33 0.0823 0.495 0l14.2-8.3126c0.331-0.2469 0.331-0.7407 0-0.9053z" fill="url(#j)" opacity=".35"/>
<path d="m285.41 9.2999-15.522 9.0534-15.603-9.0534 15.521-8.9711 15.604 8.9711z" fill="#50E6FF"/>
<path d="m285.41 9.2993-0.165 67.077-15.521 9.0534 0.165-67.077 15.521-9.0534z" fill="#50E6FF"/>
<path d="m269.89 18.353-0.165 67.077-15.603-9.0534 0.165-67.077 15.603 9.0534z" fill="#50E6FF"/>
<path d="m259.33 24.444-15.521 9.0534-15.604-9.0534 15.521-8.9711 15.604 8.9711z" fill="#45CAF2"/>
<path d="m259.33 24.443-0.166 67.077-15.521 9.0534 0.165-67.077 15.522-9.0533z" fill="#45CAF2"/>
<path d="m243.8 33.497-0.165 67.077-15.604-9.0534 0.165-67.077 15.604 9.0533z" fill="#45CAF2"/>
<path d="m232.49 39.423-15.521 9.0534-15.604-9.0534 15.521-8.971 15.604 8.971z" fill="#32B0E7"/>
<path d="m232.49 39.423-0.166 67.077-15.521 9.053 0.165-67.077 15.522-9.0534z" fill="#32B0E7"/>
<path d="m216.97 48.476-0.166 67.077-15.603-9.053 0.165-67.077 15.604 9.0534z" fill="#32B0E7"/>
<path d="m205.99 54.567-15.521 8.971-15.604-8.971 15.522-8.9711 15.603 8.9711z" fill="#2195DC"/>
<path d="m205.99 54.566-0.166 67.078-15.521 8.971 0.165-67.078 15.522-8.9711z" fill="#2195DC"/>
<path d="m190.47 63.538-0.165 67.078-15.687-8.971 0.248-67.078 15.604 8.9711z" fill="#2195DC"/>
<path d="m179.66 69.628-15.521 9.0534-15.604-9.0534 15.521-8.9711 15.604 8.9711z" fill="#0078D4"/>
<path d="m179.66 69.628-0.165 67.077-15.522 9.054 0.165-67.078 15.522-9.0534z" fill="#0078D4"/>
<path d="m164.13 78.681-0.165 67.078-15.604-9.054 0.165-67.077 15.604 9.0534z" fill="#0078D4"/>
<path d="m153.4 84.608-15.521 9.0534-15.604-9.0534 15.521-8.9711 15.604 8.9711z" fill="#156AB3"/>
<path d="m153.4 84.608-0.165 67.159-15.522 8.971 0.165-67.077 15.522-9.0534z" fill="#156AB3"/>
<path d="m137.88 93.661-0.165 67.077-15.604-8.971 0.165-67.159 15.604 9.0534z" fill="#156AB3"/>
<path d="m127.06 99.751-15.522 8.9709-15.604-8.9709 15.522-8.9711 15.604 8.9711z" fill="#185A97"/>
<path d="m127.06 99.751-0.165 67.077-15.521 9.053 0.165-67.159 15.521-8.9713z" fill="#185A97"/>
<path d="m111.54 108.72-0.165 67.159-15.604-9.053 0.1652-67.077 15.604 8.9713z" fill="#185A97"/>
<path d="m100.81 115.06-15.522 8.971-15.604-8.971 15.521-9.054 15.604 9.054z" fill="#1D4A79"/>
<path d="m100.81 115.06-0.165 67.077-15.522 8.971 0.1651-67.077 15.521-8.971z" fill="#1D4A79"/>
<path d="m85.29 124.03-0.1652 67.077-15.604-8.971 0.1651-67.077 15.604 8.971z" fill="#1D4A79"/>
<path d="m74.471 130.29-15.521 8.971-15.604-8.971 15.521-9.054 15.604 9.054z" fill="#243A5E"/>
<path d="m74.474 130.28-0.2477 67.077-15.521 8.971 0.2477-67.077 15.521-8.971z" fill="#243A5E"/>
<path d="m58.952 139.26-0.2477 67.077-15.604-8.971 0.2477-67.077 15.604 8.971z" fill="#243A5E"/>
<path d="m42.358 179.59h0.081" stroke="#fff" stroke-linecap="round" stroke-miterlimit="10" stroke-width="1.8341"/>
<path d="m284.34 41.892h0.081" stroke="#fff" stroke-linecap="round" stroke-miterlimit="10" stroke-width="1.8341"/>
<path d="m40.459 184.03s22.621-56.214 28.566-71.275c5.9443-15.062 25.511-54.238 46.481-55.637 23.942-1.6461 43.674 35.555 52.013 50.287" stroke="#50E6FF" stroke-linecap="round" stroke-miterlimit="10" stroke-width="1.8341"/>
<path d="m43.101 177.69s11.228-31.193 18.493-42.963c7.2653-11.851 11.228-15.061 16.76-15.802 5.449-0.741 11.724 2.798 15.852 9.136 4.128 6.337 15.851 22.469 21.878 30.452 6.11 7.983 9.495 10.206 16.925 9.629 7.43-0.576 13.044-9.629 16.017-15.226 2.972-5.596 15.686-36.789 18.823-45.184 3.138-8.3952 13.458-32.181 17.586-41.152s11.145-19.67 18.493-20.082 12.467 3.9505 21.631 16.214c9.164 12.263 13.952 22.551 20.887 28.477 6.935 5.9259 9.908 5.9259 15.522 3.9506s12.962-12.839 16.181-21.399c1.652-4.4444 6.275-32.345 6.275-32.345" stroke="#50E6FF" stroke-linecap="round" stroke-miterlimit="10" stroke-width="1.4672"/>
<path d="m40.46 184.03s8.5862-19.177 13.292-26.173c4.7059-6.913 6.8525-11.852 14.696-12.099 7.8432-0.329 14.035 7.243 17.75 11.111 3.7152 3.869 9.6595 10.206 16.429 8.56 6.853-1.646 12.549-11.193 17.503-21.564 4.871-10.37 10.815-21.398 14.2-27.9s7.843-15.803 15.521-18.189c7.679-2.3868 17.916 9.8764 17.916 9.8764s10.485 12.263 19.979 8.971c9.495-3.21 15.852-19.012 18.659-24.938 2.807-5.9259 11.146-23.21 14.365-29.053 3.22-5.9259 9.165-13.58 15.852-13.909s14.035 7.9834 18.328 12.51c4.293 4.609 9.908 9.1357 17.338 6.8312 7.43-2.3868 12.054-26.749 12.054-26.749" stroke="#50E6FF" stroke-linecap="round" stroke-miterlimit="10" stroke-width="1.4672"/>
<path d="m40.459 184.03s11.146-20.987 18.081-23.703c6.9351-2.716 7.2653-1.646 11.393-0.165 4.128 1.482 10.568 5.268 16.677 3.786 6.1095-1.481 10.485-7.901 12.714-11.111 2.2287-3.127 10.568-16.79 14.696-22.139 4.128-5.35 7.348-7.737 12.467-7.737 5.118 0 10.072 2.305 12.796 3.621 2.725 1.317 7.926 4.033 15.439-1.975s15.439-20.164 18.824-25.102c3.385-4.9382 7.265-11.029 13.209-12.428 5.945-1.3992 11.889 1.4814 15.852 2.9629 4.045 1.4815 8.999 3.4567 15.604-1.893 6.604-5.3497 13.127-17.201 15.934-21.481 2.807-4.3621 8.669-15.226 15.686-15.967 7.018-0.7407 8.421 0.6585 15.191 3.6214 6.77 2.8806 7.348 2.2222 12.467-1.6461 5.118-3.8682 6.852-11.029 6.852-11.029" stroke="#50E6FF" stroke-linecap="round" stroke-miterlimit="10" stroke-width="1.4672"/>
<path d="m66.702 227.16 87.101-48.559c1.403-0.741 3.054-0.741 4.375 0l121.45 70.122c2.972 1.728 2.972 6.008-0.083 7.737l-87.018 48.476c-1.403 0.741-3.055 0.741-4.375 0l-121.45-70.122c-2.9722-1.729-2.9722-6.008 0-7.654z" fill="url(#i)" opacity=".35"/>
<path d="m92.295 213.58 2.4768 3.209 119.96 70.287c2.56 1.482 5.78 0.741 7.348-1.728l54.325-85.184 0.578-2.963 0.495 1.235c0.578 1.399 0.495 3.045-0.33 4.362l-54.407 85.102c-1.486 2.386-4.624 3.127-7.018 1.728l-120.7-70.534c-1.2384-0.741-2.1466-1.975-2.3942-3.457l-0.3303-2.057z" fill="#505055"/>
<path d="m93.946 216.29 122.6 71.769c1.569 0.905 3.55 0.412 4.541-1.07l55.48-87.077c0.991-1.564 0.496-3.704-1.156-4.691l-122.52-71.769c-1.568-0.905-3.55-0.411-4.54 1.07l-55.481 87.077c-1.0733 1.564-0.5779 3.704 1.0733 4.691z" fill="#78787D"/>
<path d="m100.88 213.08 116 67.901 51.435-81.563-115.91-67.983-51.518 81.645z" fill="#323237"/>
<path d="m208.87 242.05 0.413-0.741-70.671-42.222-0.413 0.741 70.671 42.222z" fill="#505055"/>
<path d="m213.16 234.89 0.412-0.741-70.671-42.221-0.413 0.74 70.672 42.222z" fill="#505055"/>
<path d="m217.46 227.82 0.413-0.741-70.671-42.221-0.413 0.74 70.671 42.222z" fill="#505055"/>
<path d="m221.67 220.66 0.413-0.741-70.671-42.222-0.413 0.741 70.671 42.222z" fill="#505055"/>
<path d="m225.96 213.58 0.413-0.741-70.672-42.222-0.412 0.741 70.671 42.222z" fill="#505055"/>
<path d="m207.3 244.6 0.413-0.741-70.589-42.222-0.413 0.741 70.589 42.222z" fill="#0078D4"/>
<path d="m201.69 237.69 7.265 4.28 5.779-9.629-7.265-4.28-5.779 9.629z" fill="#1D4A79"/>
<path d="m192.61 232.26 7.266 4.362 8.008-13.251-7.265-4.362-8.009 13.251z" fill="#185A97"/>
<path d="m183.61 226.91 7.265 4.279 10.073-16.789-7.266-4.28-10.072 16.79z" fill="#156AB3"/>
<path d="m174.61 221.48 7.266 4.362 13.374-22.222-7.265-4.362-13.375 22.222z" fill="#0078D4"/>
<path d="m165.28 215.96 7.266 4.28 12.136-20.164-7.265-4.28-12.137 20.164z" fill="#2195DC"/>
<path d="m156.28 210.53 7.265 4.363 9.99-16.626-7.265-4.362-9.99 16.625z" fill="#32B0E7"/>
<path d="m147.28 205.18 7.265 4.28 15.439-25.679-7.265-4.279-15.439 25.678z" fill="#45CAF2"/>
<path d="m138.2 199.75 7.265 4.362 18.246-30.37-7.266-4.362-18.245 30.37z" fill="#50E6FF"/>
<path d="m131.71 210.78 4.503 2.756 2.765-4.489-4.503-2.756-2.765 4.489z" fill="#505055"/>
<path d="m162.47 227.16 0.496-0.659-24.273-14.485-0.495 0.658 24.272 14.486z" fill="#505055"/>
<path d="m161.65 228.47 0.496-0.659-24.273-14.485-0.495 0.658 24.272 14.486z" fill="#323237"/>
<path d="m230.92 204.85 1.816-2.386-36.657-22.058-1.816 2.387 36.657 22.057z" fill="#323237"/>
<path d="m313.16 103.62-3.963 42.304-53.417-28.806 4.706-41.234c0.083-0.9877 1.239-1.5638 2.064-1.07l50.61 28.806z" fill="#0078D4"/>
<path d="m313.16 103.62-3.963 42.304-53.417-28.806 4.706-41.564c0.083-0.8231 0.991-1.3169 1.734-0.9054l50.94 28.971z" fill="#505055"/>
<path d="m254.78 115.96-35.666 20.329 3.467 2.223 49.949 27.983 1.073 0.658 35.253-20 1.239-0.658-0.743-1.152-52.839-29.465c-0.578-0.247-1.238-0.247-1.733 0.082z" fill="#78787D"/>
<path d="m264.28 148.39-8.256 4.691c-0.247 0.165-0.495 0.165-0.743 0l-12.384-6.995c-0.247-0.165-0.247-0.494 0-0.576l8.091-4.774c0.248-0.165 0.495-0.165 0.743 0l12.549 6.996c0.248 0.164 0.248 0.494 0 0.658z" fill="#CDCDD0"/>
<path d="m219.12 135.96c0.165 0.247 0.413 0.659 0.743 0.906 6.275 4.444 50.114 28.724 51.518 29.547 1.568 0.823 1.486 1.152 3.632-0.083 1.899-1.07 28.401-15.966 34.015-19.423 0.66-0.412 0.66-1.235 0.743-1.235 0.33-0.247 0.495 1.976 0.413 2.963-0.083 0.329-0.413 0.905-0.743 1.07-3.881 2.387-32.694 18.765-34.098 19.753-2.476 1.728-3.054 1.317-4.623 0.082-2.229-1.728-47.307-26.995-51.352-29.876-0.248-0.165-0.33-0.411-0.33-0.658v-2.881c-0.083-0.082 0-0.494 0.082-0.165z" fill="#0078D4"/>
<path d="m219.12 135.96c0.165 0.247 0.413 0.659 0.743 0.906 6.274 4.444 50.114 28.724 51.517 29.547 1.569 0.823 1.486 1.152 3.633-0.083 1.899-1.07 28.401-15.966 34.015-19.423 0.66-0.412 0.743-1.235 0.743-1.235 0.33-0.247 0.495 1.976 0.33 2.963-0.083 0.329-0.413 0.905-0.743 1.07-3.88 2.387-32.694 18.765-34.097 19.753-2.477 1.728-3.138 1.234-4.624 0.082-2.229-1.728-47.307-26.995-51.352-29.876-0.248-0.165-0.33-0.411-0.33-0.658v-2.881c0-0.082 0.082-0.494 0.165-0.165z" fill="#505055"/>
<path d="m271.87 167.24-52.508-29.876c-0.33-0.329-0.33-0.658-0.33-0.905s0.165-0.576 0.412-0.741l34.923-20.082c0.413-0.247 0.991-0.247 1.404 0l53.829 29.547c0.33 0.165 0.495 0.823 0.495 1.235 0 0.411-0.165 0.74-0.495 0.905l-35.336 19.835c-0.413 0.247-0.825 0.329-1.238 0.329-0.413 0.083-0.826 0-1.156-0.247zm-51.435-30.863c-0.082 0-0.165 0.082-0.165 0.164s0.083 0.247 0.165 0.329l51.765 29.383c0.578 0.329 1.321 0.329 1.899 0l34.675-19.589c0.165-0.082 0.331-0.329 0.331-0.493 0-0.247-0.083-0.412-0.248-0.494l-53.664-29.3-34.758 20z" fill="#78787D"/>
<path d="m256.44 116.05s0.165 0.576 0.743 1.152c0.331 0.411-1.238-0.659-1.238-0.659l0.495-0.493z" fill="#78787D"/>
<path d="m258.75 114.65 47.638 25.514 3.467-34.239-46.564-26.337c-0.082-0.0823-0.165-0.0823-0.248 0-0.082 0-0.165 0.0823-0.165 0.1646 0 0-4.21 34.814-4.128 34.897z" fill="#9B9BA0"/>
<path d="m258.75 114.65 47.638 25.514 3.467-34.239-46.564-26.337c-0.082-0.0823-0.165-0.0823-0.248 0-0.082 0-0.165 0.0823-0.165 0.1646 0 0-4.21 34.814-4.128 34.897z" fill="#323237"/>
<path d="m255.78 115.31c0.33-3.21 4.293-37.695 4.293-39.094 0.082-1.3991 1.403-2.9629 2.972-2.2222 0.743 0.3292 48.38 27.736 49.123 28.148 1.899 1.234 1.651 1.646 1.569 4.115 0 1.893-3.468 36.872-3.798 38.188-0.413 1.893 0.413 1.4-0.826 1.317v-0.082h-0.082c-0.248 0-0.496-0.329-0.413-0.576 0-0.165 3.633-37.695 3.633-37.695 0.247-2.798-0.165-3.128-1.074-3.786-0.743-0.494-48.628-28.23-48.628-28.23s-0.908-0.3292-1.403 0.2469c-0.248 0.2469-0.413 0.7407-0.495 1.4815-0.166 1.3991-3.963 35.802-4.294 39.012-0.082 0.576 0 0.412 0.083 0.659 0.083 0.246-0.248-0.247-0.495-0.165-0.248 0.082 0.082 0.411 0 0.165 0.082-0.494-0.248-0.824-0.165-1.482z" fill="#78787D"/>
<path d="m255.78 125.84-2.312 1.399 3.22 1.81 2.312-1.399-3.22-1.81z" fill="#CDCDD0"/>
<path d="m259.82 128.15-2.229 1.399 2.642 1.482 2.311-1.4-2.724-1.481z" fill="#CDCDD0"/>
<path d="m263.37 130.12-2.311 1.399 2.724 1.482 2.229-1.317-2.642-1.564z" fill="#CDCDD0"/>
<path d="m253.22 127.98-5.697-3.21-2.394 1.4 5.614 3.209 2.477-1.399z" fill="#CDCDD0"/>
<path d="m278.15 148.39 2.229-1.317-2.89-1.646-2.229 1.317 2.89 1.646z" fill="#CDCDD0"/>
<path d="m281.37 150.2 2.229-1.317-2.394-1.317-2.229 1.317 2.394 1.317z" fill="#CDCDD0"/>
<path d="m274.43 136.38-2.311 1.399 2.807 1.646 2.311-1.399-2.807-1.646z" fill="#CDCDD0"/>
<path d="m275.76 140.74-2.394 1.481 2.807 1.564 2.394-1.482-2.807-1.563z" fill="#CDCDD0"/>
<path d="m279.39 142.8-2.394 1.481 2.889 1.646 2.395-1.481-2.89-1.646z" fill="#CDCDD0"/>
<path d="m278.73 141.48 2.23-1.317-2.807-1.646-2.312 1.399 2.889 1.564z" fill="#CDCDD0"/>
<path d="m272.29 138.85-2.394 1.399 2.641 1.482 2.395-1.482-2.642-1.399z" fill="#CDCDD0"/>
<path d="m282.28 143.54 2.311-1.317-2.724-1.564-2.312 1.317 2.725 1.564z" fill="#CDCDD0"/>
<path d="m270.55 134.24-2.311 1.399 2.972 1.646 2.312-1.317-2.973-1.728z" fill="#CDCDD0"/>
<path d="m266.92 132.18-2.312 1.317 2.808 1.646 2.311-1.4-2.807-1.563z" fill="#CDCDD0"/>
<path d="m264.28 140.58 2.229-1.317-2.642-1.564-2.229 1.317 2.642 1.564z" fill="#CDCDD0"/>
<path d="m267.58 142.47 2.229-1.399-2.394-1.317-2.229 1.317 2.394 1.399z" fill="#CDCDD0"/>
<path d="m254.04 128.48-2.395 1.399 2.973 1.646 2.394-1.399-2.972-1.646z" fill="#CDCDD0"/>
<path d="m260.73 138.52 2.311-1.317-2.642-1.481-2.229 1.317 2.56 1.481z" fill="#CDCDD0"/>
<path d="m283.68 148.06 2.394-1.399-2.972-1.728-2.395 1.399 2.973 1.728z" fill="#CDCDD0"/>
<path d="m289.54 147.65 2.312-1.317-2.807-1.564-2.312 1.317 2.807 1.564z" fill="#CDCDD0"/>
<path d="m274.43 146.34 2.229-1.399-2.477-1.399-2.311 1.317 2.559 1.481z" fill="#CDCDD0"/>
<path d="m268.9 136.87-2.395 1.399 2.56 1.482 2.394-1.399-2.559-1.482z" fill="#CDCDD0"/>
<path d="m265.19 134.81-2.394 1.4 2.89 1.646 2.394-1.482-2.89-1.564z" fill="#CDCDD0"/>
<path d="m261.64 132.76-2.394 1.399 2.725 1.564 2.394-1.399-2.725-1.564z" fill="#CDCDD0"/>
<path d="m271.05 144.36 2.229-1.316-2.559-1.482-2.312 1.317 2.642 1.481z" fill="#CDCDD0"/>
<path d="m257.92 130.62-2.477 1.399 2.972 1.728 2.394-1.481-2.889-1.646z" fill="#CDCDD0"/>
<path d="m288.72 141.07-2.146 1.316 2.642 1.564 2.229-1.317-2.725-1.563z" fill="#CDCDD0"/>
<path d="m257.26 136.62 2.312-1.399-2.559-1.4-2.229 1.317 2.476 1.482z" fill="#CDCDD0"/>
<path d="m285.58 139.26-2.229 1.317 2.312 1.316 2.229-1.316-2.312-1.317z" fill="#CDCDD0"/>
<path d="m292.27 143.13-2.229 1.235 3.137 1.81 2.147-1.317-3.055-1.728z" fill="#CDCDD0"/>
<path d="m285.5 142.72-2.311 1.316 2.724 1.564 2.312-1.317-2.725-1.563z" fill="#CDCDD0"/>
<path d="m299.86 146.5 2.064-1.234-4.046-2.305-2.064 1.235 4.046 2.304z" fill="#CDCDD0"/>
<path d="m282.11 137.36-2.146 1.317 2.559 1.399 2.147-1.317-2.56-1.399z" fill="#CDCDD0"/>
<path d="m267.91 129.3-2.146 1.317 2.724 1.564 2.229-1.317-2.807-1.564z" fill="#CDCDD0"/>
<path d="m294.91 143.7 2.064-1.235-2.56-1.481-2.064 1.234 2.56 1.482z" fill="#CDCDD0"/>
<path d="m264.03 127.08-2.146 1.317 2.972 1.728 2.229-1.317-3.055-1.728z" fill="#CDCDD0"/>
<path d="m260.65 125.18-2.23 1.317 2.56 1.399 2.229-1.317-2.559-1.399z" fill="#CDCDD0"/>
<path d="m278.73 135.39-2.229 1.317 2.559 1.481 2.23-1.317-2.56-1.481z" fill="#CDCDD0"/>
<path d="m275.18 133.41-2.229 1.317 2.724 1.482 2.147-1.317-2.642-1.482z" fill="#CDCDD0"/>
<path d="m254.95 125.35-4.376-2.469-2.311 1.4 4.375 2.469 2.312-1.4z" fill="#CDCDD0"/>
<path d="m271.54 131.36-2.146 1.317 2.724 1.564 2.229-1.317-2.807-1.564z" fill="#CDCDD0"/>
<path d="m263.29 125.76 2.064-1.234-2.311-1.317-2.064 1.234 2.311 1.317z" fill="#CDCDD0"/>
<path d="m291.52 141.73 2.064-1.152-2.972-1.729-2.064 1.235 2.972 1.646z" fill="#CDCDD0"/>
<path d="m266.59 127.57 2.064-1.152-2.477-1.399-2.064 1.234 2.477 1.317z" fill="#CDCDD0"/>
<path d="m270.14 129.63 2.064-1.234-2.725-1.482-2.063 1.152 2.724 1.564z" fill="#CDCDD0"/>
<path d="m258.75 120.82-2.395-1.399-1.981 1.234 2.312 1.399 2.064-1.234z" fill="#CDCDD0"/>
<path d="m256.27 122.72-2.725-1.564-2.146 1.317 2.724 1.564 2.147-1.317z" fill="#CDCDD0"/>
<path d="m260.15 123.95 2.064-1.234-2.559-1.399-2.064 1.152 2.559 1.481z" fill="#CDCDD0"/>
<path d="m287.64 139.59 2.064-1.235-2.312-1.317-2.063 1.235 2.311 1.317z" fill="#CDCDD0"/>
<path d="m273.86 131.77 2.064-1.234-2.889-1.647-2.064 1.235 2.889 1.646z" fill="#CDCDD0"/>
<path d="m284.51 137.78 2.064-1.234-2.642-1.482-2.064 1.235 2.642 1.481z" fill="#CDCDD0"/>
<path d="m281.04 135.8 2.064-1.152-2.642-1.564-2.064 1.235 2.642 1.481z" fill="#CDCDD0"/>
<path d="m277.49 133.83 2.064-1.235-2.807-1.564-2.064 1.153 2.807 1.646z" fill="#CDCDD0"/>
<path d="m257.18 123.21-2.229 1.234 2.642 1.564 2.229-1.317-2.642-1.481z" fill="#CDCDD0"/>
<path d="m268.9 144.11-2.477 1.399 2.807 1.646 2.477-1.482-2.807-1.563z" fill="#CDCDD0"/>
<path d="m265.44 142.14-2.394 1.481 2.559 1.399 2.477-1.399-2.642-1.481z" fill="#CDCDD0"/>
<path d="m248.68 129.05-4.376-2.469-2.229 1.399 4.376 2.469 2.229-1.399z" fill="#CDCDD0"/>
<path d="m241.33 128.39-2.477 1.481 2.642 1.481 2.477-1.399-2.642-1.563z" fill="#CDCDD0"/>
<path d="m244.88 130.45-2.477 1.399 2.477 1.482 2.477-1.482-2.477-1.399z" fill="#CDCDD0"/>
<path d="m255.03 136.21-2.477 1.4 2.477 1.481 2.477-1.481-2.477-1.4z" fill="#CDCDD0"/>
<path d="m251.56 134.24-2.477 1.482 2.56 1.481 2.477-1.481-2.56-1.482z" fill="#CDCDD0"/>
<path d="m248.18 132.34-2.394 1.482 2.477 1.399 2.394-1.481-2.477-1.4z" fill="#CDCDD0"/>
<path d="m296.23 145.35-2.229 1.317 2.89 1.646 2.229-1.317-2.89-1.646z" fill="#CDCDD0"/>
<path d="m258.34 138.1-2.477 1.4 2.889 1.646 2.395-1.482-2.807-1.564z" fill="#CDCDD0"/>
<path d="m262.05 140.16-2.477 1.481 2.56 1.482 2.476-1.482-2.559-1.481z" fill="#CDCDD0"/>
<path d="m290.37 148.15 3.468 1.976 2.311-1.4-3.467-1.975-2.312 1.399z" fill="#CDCDD0"/>
<path d="m282.2 150.7 5.449 3.127 2.229-1.317-5.449-3.127-2.229 1.317z" fill="#CDCDD0"/>
<path d="m279.39 150.04-2.394 1.481 2.394 1.317 2.394-1.399-2.394-1.399z" fill="#CDCDD0"/>
<path d="m280.21 153.33 4.211 2.387 2.394-1.481-4.128-2.305-2.477 1.399z" fill="#CDCDD0"/>
<path d="m253.88 134.65 2.312-1.317-2.89-1.646-2.311 1.317 2.889 1.646z" fill="#CDCDD0"/>
<path d="m272.54 146.17-2.394 1.482 2.56 1.399 2.394-1.399-2.56-1.482z" fill="#CDCDD0"/>
<path d="m276 148.06-2.477 1.482 2.56 1.481 2.477-1.481-2.56-1.482z" fill="#CDCDD0"/>
<path d="m250.16 132.51 2.229-1.317-2.889-1.646-2.23 1.317 2.89 1.646z" fill="#CDCDD0"/>
<path d="m284.59 148.56 6.11 3.457 2.394-1.399-6.109-3.457-2.395 1.399z" fill="#CDCDD0"/>
<path d="m286.16 102.33c2.354 1.184 3.877 3.69 4.292 6.476 0.416 0.069 0.762 0.208 1.177 0.417 2.769 1.463 4.154 5.292 3.046 8.704-0.138 0.418-0.277 0.766-0.484 1.114 0 0.07-0.069 0.07-0.069 0.14-0.347 0.557-0.693 0.975-0.97 1.253l-0.138 0.139c-1.523 1.393-3.531 1.811-5.47 0.836l-14.538-7.52c-1.523-1.045-2.285-3.343-1.593-5.292 0.693-2.089 2.7-3.064 4.5-2.159 0.347 0.209 0.693 0.418 0.97 0.766 0-0.139 0.069-0.209 0.069-0.348 1.523-4.457 5.608-6.406 9.208-4.526z" fill="#50E6FF"/>
</g>
<defs>
<linearGradient id="y" x1="330.68" x2="115.03" y1="72.201" y2="317.29" gradientUnits="userSpaceOnUse">
<stop offset="0"/>
<stop stop-opacity="0" offset=".8221"/>
</linearGradient>
<linearGradient id="n" x1="367.37" x2="407.24" y1="265.33" y2="265.33" gradientUnits="userSpaceOnUse">
<stop offset="0"/>
<stop stop-opacity="0" offset=".8221"/>
</linearGradient>
<linearGradient id="h" x1="366.01" x2="396.91" y1="253.69" y2="253.69" gradientUnits="userSpaceOnUse">
<stop stop-color="#4DC2EB" offset="0"/>
<stop stop-color="#0078D4" offset=".585"/>
</linearGradient>
<linearGradient id="g" x1="462.78" x2="502.65" y1="205.41" y2="205.41" gradientUnits="userSpaceOnUse">
<stop offset="0"/>
<stop stop-opacity="0" offset=".8221"/>
</linearGradient>
<linearGradient id="f" x1="462.02" x2="492.92" y1="194.56" y2="194.56" gradientUnits="userSpaceOnUse">
<stop stop-color="#4DC2EB" offset="0"/>
<stop stop-color="#0078D4" offset=".585"/>
</linearGradient>
<linearGradient id="e" x1="415.51" x2="455.38" y1="235.45" y2="235.45" gradientUnits="userSpaceOnUse">
<stop offset="0"/>
<stop stop-opacity="0" offset=".8221"/>
</linearGradient>
<linearGradient id="d" x1="414.75" x2="445.64" y1="224.61" y2="224.61" gradientUnits="userSpaceOnUse">
<stop stop-color="#4DC2EB" offset="0"/>
<stop stop-color="#0078D4" offset=".585"/>
</linearGradient>
<linearGradient id="c" x1="327.55" x2="303.4" y1="116.33" y2="143.51" gradientUnits="userSpaceOnUse">
<stop offset="0"/>
<stop stop-opacity="0" offset=".8221"/>
</linearGradient>
<linearGradient id="b" x1="303.48" x2="314.12" y1="212.74" y2="224.72" gradientUnits="userSpaceOnUse">
<stop offset="0"/>
<stop stop-opacity="0" offset=".8221"/>
</linearGradient>
<linearGradient id="a" x1="326.75" x2="337.39" y1="198.32" y2="210.3" gradientUnits="userSpaceOnUse">
<stop offset="0"/>
<stop stop-opacity="0" offset=".8221"/>
</linearGradient>
<linearGradient id="x" x1="276.56" x2="303.23" y1="143.91" y2="173.92" gradientUnits="userSpaceOnUse">
<stop offset="0"/>
<stop stop-opacity="0" offset=".8221"/>
</linearGradient>
<linearGradient id="w" x1="332.24" x2="353" y1="123.74" y2="147.83" gradientUnits="userSpaceOnUse">
<stop offset="0"/>
<stop stop-opacity="0" offset=".8221"/>
</linearGradient>
<linearGradient id="v" x1="365.29" x2="387.1" y1="190.07" y2="215.37" gradientUnits="userSpaceOnUse">
<stop offset="0"/>
<stop stop-opacity="0" offset=".8221"/>
</linearGradient>
<linearGradient id="u" x1="385.44" x2="407.25" y1="176.64" y2="201.94" gradientUnits="userSpaceOnUse">
<stop offset="0"/>
<stop stop-opacity="0" offset=".8221"/>
</linearGradient>
<linearGradient id="t" x1="405.2" x2="427.01" y1="165.58" y2="190.88" gradientUnits="userSpaceOnUse">
<stop offset="0"/>
<stop stop-opacity="0" offset=".8221"/>
</linearGradient>
<linearGradient id="s" x1="305.95" x2="316.6" y1="184.87" y2="196.85" gradientUnits="userSpaceOnUse">
<stop offset="0"/>
<stop stop-opacity="0" offset=".8221"/>
</linearGradient>
<linearGradient id="r" x1="64.837" x2="76.273" y1="198.13" y2="210.8" gradientUnits="userSpaceOnUse">
<stop offset="0"/>
<stop stop-opacity="0" offset=".8221"/>
</linearGradient>
<linearGradient id="q" x1="90.542" x2="101.98" y1="182.52" y2="195.2" gradientUnits="userSpaceOnUse">
<stop offset="0"/>
<stop stop-opacity="0" offset=".8221"/>
</linearGradient>
<linearGradient id="p" x1="115.15" x2="126.59" y1="166.47" y2="179.14" gradientUnits="userSpaceOnUse">
<stop offset="0"/>
<stop stop-opacity="0" offset=".8221"/>
</linearGradient>
<linearGradient id="o" x1="167.36" x2="178.79" y1="135.67" y2="148.34" gradientUnits="userSpaceOnUse">
<stop offset="0"/>
<stop stop-opacity="0" offset=".8221"/>
</linearGradient>
<linearGradient id="m" x1="193.73" x2="205.47" y1="120.7" y2="133.7" gradientUnits="userSpaceOnUse">
<stop offset="0"/>
<stop stop-opacity="0" offset=".8221"/>
</linearGradient>
<linearGradient id="l" x1="219.28" x2="230.96" y1="104.79" y2="117.73" gradientUnits="userSpaceOnUse">
<stop offset="0"/>
<stop stop-opacity="0" offset=".8221"/>
</linearGradient>
<linearGradient id="k" x1="246.42" x2="257.86" y1="90.054" y2="102.72" gradientUnits="userSpaceOnUse">
<stop offset="0"/>
<stop stop-opacity="0" offset=".8221"/>
</linearGradient>
<linearGradient id="j" x1="273.11" x2="284.54" y1="75.15" y2="87.82" gradientUnits="userSpaceOnUse">
<stop offset="0"/>
<stop stop-opacity="0" offset=".8221"/>
</linearGradient>
<linearGradient id="i" x1="218.31" x2="122.04" y1="191.32" y2="299.66" gradientUnits="userSpaceOnUse">
<stop offset="0"/>
<stop stop-opacity="0" offset=".8221"/>
</linearGradient>
<clipPath id="z">
<rect transform="translate(.5)" width="516" height="313" fill="#fff"/>
</clipPath>
</defs>
</svg>
